<svg width="27" height="27" viewBox="0 0 27 27" fill="none" xmlns="http://www.w3.org/2000/svg">
<path d="M26.5462 15.425C26.3538 15.2322 26.1125 15.0954 25.8483 15.0293C25.584 14.9633 25.3067 14.9704 25.0462 15.05C23.2264 15.5994 21.2916 15.6449 19.4479 15.1815C17.6043 14.7182 15.9208 13.7635 14.5769 12.4191C13.233 11.0746 12.2789 9.39081 11.8163 7.54699C11.3537 5.70316 11.3999 3.76839 11.95 1.94875C12.0302 1.68812 12.0379 1.41056 11.9722 1.14589C11.9065 0.881233 11.7699 0.63949 11.5771 0.446664C11.3842 0.253838 11.1425 0.117226 10.8778 0.051519C10.6132 -0.014188 10.3356 -0.0065036 10.075 0.0737459C7.33798 0.91499 4.93609 2.59819 3.21124 4.88375C1.70287 6.88861 0.783027 9.27415 0.554935 11.7727C0.326843 14.2712 0.799522 16.7839 1.91994 19.0287C3.04035 21.2736 4.76416 23.1618 6.89795 24.4815C9.03174 25.8012 11.4911 26.5002 14 26.5C16.9292 26.5086 19.7803 25.5562 22.1162 23.7887C24.4006 22.0622 26.082 19.659 26.9212 16.9212C27.0001 16.6613 27.0069 16.3847 26.9408 16.1212C26.8748 15.8577 26.7384 15.6171 26.5462 15.425ZM20.3112 21.3925C18.2894 22.9146 15.7858 23.6552 13.2612 23.4781C10.7367 23.3009 8.36105 22.218 6.57153 20.4285C4.78202 18.6389 3.69904 16.2633 3.5219 13.7388C3.34477 11.2142 4.0854 8.71062 5.60749 6.68875C6.4084 5.62933 7.40099 4.72959 8.53374 4.03625C8.51124 4.35625 8.49999 4.6775 8.49999 5C8.50396 8.5792 9.92755 12.0107 12.4584 14.5416C14.9893 17.0724 18.4208 18.496 22 18.5C22.3225 18.5 22.6437 18.4887 22.9637 18.4662C22.2707 19.5992 21.3709 20.5919 20.3112 21.3925Z" fill="#121214"/>
</svg>
